<?xml version="1.0" standalone="no"?>
<!DOCTYPE svg PUBLIC "-//W3C//DTD SVG 20010904//EN"
 "http://www.w3.org/TR/2001/REC-SVG-20010904/DTD/svg10.dtd">
<svg version="1.0" xmlns="http://www.w3.org/2000/svg"
 width="225.000000pt" height="225.000000pt" viewBox="0 0 225.000000 225.000000"
 preserveAspectRatio="xMidYMid meet">
<metadata>
Created by potrace 1.16, written by Peter Selinger 2001-2019
</metadata>
<g transform="translate(0.000000,225.000000) scale(0.100000,-0.100000)"
fill="#000000" stroke="none">
<path d="M1304 2091 c-31 -19 -98 -117 -123 -178 -16 -39 -38 -43 -51 -8 -35
92 -127 82 -165 -19 -16 -40 -16 -47 -2 -75 13 -27 13 -31 1 -31 -35 0 -157
-74 -208 -126 -82 -83 -103 -136 -142 -360 -5 -29 -29 -34 -155 -34 -68 0
-111 -4 -122 -12 -13 -10 -19 -41 -28 -133 -17 -181 -16 -201 7 -232 35 -49
101 -74 198 -75 l85 -2 21 -70 c28 -91 116 -261 152 -291 27 -22 140 -55 192
-55 40 0 136 -146 136 -209 0 -34 13 -41 76 -41 80 0 140 51 163 137 9 34 9
49 -4 79 -8 20 -14 38 -13 39 2 1 26 9 55 18 50 14 53 14 70 -5 31 -34 95 -60
158 -65 52 -4 65 -2 98 21 20 14 37 23 37 20 0 -2 9 0 20 6 43 23 15 114 -49
161 -27 19 -28 24 -17 41 11 15 11 30 0 81 -25 119 -35 269 -28 422 l7 151
-27 28 c-23 26 -26 37 -26 100 -1 177 -76 313 -208 375 -48 23 -50 25 -37 45
29 40 15 90 -32 115 -18 9 -30 8 -58 -3 l-36 -15 23 40 c27 48 81 99 106 99 9
0 44 -7 77 -15 84 -20 102 -19 111 7 20 65 -181 118 -262 69z m204 -30 c41
-21 55 -41 30 -41 -7 0 -46 7 -86 15 -62 13 -77 13 -105 1 -33 -13 -77 -61
-113 -123 -10 -18 -24 -33 -32 -33 -14 0 43 116 78 158 47 57 143 67 228 23z
m-133 -324 c94 -45 138 -85 175 -160 29 -59 50 -169 50 -262 l0 -30 -485 0
c-317 0 -485 3 -485 10 1 31 42 192 59 230 27 60 124 161 185 192 l49 25 -22
-30 c-35 -50 -25 -68 12 -20 40 52 69 57 79 13 5 -24 6 -20 5 17 l-2 47 40 4
c22 3 91 3 154 1 105 -3 120 -6 186 -37z m-519 -510 c5 -4 8 -48 7 -97 -1 -73
-5 -95 -22 -119 -12 -16 -21 -33 -21 -39 0 -5 -12 -12 -27 -15 -41 -9 -425 4
-445 15 -15 7 -18 22 -18 77 0 37 3 96 6 130 l7 61 253 -2 c139 -2 256 -7 260
-11z m350 -198 c42 -6 116 -22 163 -35 82 -24 233 -93 257 -117 7 -7 14 -37
16 -68 l4 -56 -50 19 c-28 11 -80 33 -116 48 -36 16 -90 36 -120 45 -52 16
-55 19 -55 49 l0 31 -70 6 c-70 5 -182 46 -206 75 -9 12 -2 14 44 14 31 0 90
-5 133 -11z m-148 -50 c86 -45 106 -52 163 -53 69 -2 79 -14 38 -48 -52 -44
-234 -71 -318 -48 -97 26 -131 108 -70 169 43 43 71 40 187 -20z m-521 -45
c39 -5 42 -7 48 -45 4 -22 4 -43 0 -47 -11 -11 -139 -5 -179 8 -35 11 -86 61
-86 83 0 12 126 13 217 1z m273 -22 c0 -10 7 -27 15 -38 8 -10 15 -22 15 -25
0 -3 -25 -23 -55 -44 -31 -21 -66 -50 -79 -66 l-24 -28 49 -93 c58 -112 104
-149 232 -184 97 -27 68 -31 -58 -8 -78 15 -94 21 -120 49 -37 39 -129 221
-146 288 -15 60 -3 85 60 133 51 39 111 48 111 16z m909 -407 c33 -38 45 -103
17 -92 -8 3 -22 -3 -31 -13 -32 -35 -78 -43 -140 -26 -56 17 -125 65 -93 66 9
0 46 16 82 35 36 19 66 30 66 25 0 -6 5 -10 10 -10 6 0 10 8 10 18 0 45 39 43
79 -3z m-405 -194 c-2 -79 -75 -155 -143 -149 -30 3 -36 7 -42 33 -7 37 -43
109 -76 152 l-24 33 58 -6 c32 -2 87 -1 123 4 81 11 105 -5 104 -67z"/>
<path d="M790 1599 c0 -7 7 -21 17 -31 23 -25 9 -34 -22 -14 -29 19 -34 7 -6
-18 16 -15 18 -23 9 -54 -22 -80 29 -152 108 -152 56 0 97 34 114 95 11 39 10
51 -5 90 -9 25 -26 52 -38 60 -26 18 -90 20 -118 3 -18 -11 -23 -10 -40 11
-10 13 -19 17 -19 10z"/>
<path d="M1831 1664 c-2 -75 -19 -155 -38 -176 -9 -10 -35 -23 -57 -29 l-41
-11 48 -13 c70 -18 79 -31 93 -137 l11 -93 2 95 c2 118 12 142 69 154 46 11
57 26 17 26 -37 0 -75 21 -80 44 -3 12 -9 59 -14 106 -7 68 -9 75 -10 34z"/>
</g>
</svg>
